<svg width="216" height="73" viewBox="0 0 216 73" fill="none" xmlns="http://www.w3.org/2000/svg">
<path fill-rule="evenodd" clip-rule="evenodd" d="M14.8744 25.09L0 17.5999V64.0582L17.2787 72.7595V56.4683L32.1531 63.9584V47.6671L47.0275 55.1573V8.70135L29.7488 0V16.2912L14.8744 8.80112V25.09Z" fill="#0360F0"/>
<path d="M88.4457 29.1111C91.0158 29.1111 93.082 29.9048 94.6442 31.4923C96.2317 33.0545 97.0254 35.2467 97.0254 38.0688V50.3525H91.7339V38.7869C91.7339 37.1491 91.3182 35.9018 90.4867 35.0451C89.6551 34.1632 88.5213 33.7222 87.085 33.7222C85.6488 33.7222 84.5023 34.1632 83.6456 35.0451C82.814 35.9018 82.3983 37.1491 82.3983 38.7869V50.3525H77.1068V38.7869C77.1068 37.1491 76.6911 35.9018 75.8596 35.0451C75.028 34.1632 73.8942 33.7222 72.4579 33.7222C70.9964 33.7222 69.8374 34.1632 68.9807 35.0451C68.1491 35.9018 67.7334 37.1491 67.7334 38.7869V50.3525H62.4419V29.4135H67.7334V31.9458C68.4137 31.0639 69.283 30.371 70.3413 29.867C71.4248 29.3631 72.6091 29.1111 73.8942 29.1111C75.532 29.1111 76.9934 29.4639 78.2785 30.1694C79.5636 30.8497 80.5589 31.8324 81.2644 33.1175C81.9447 31.908 82.9274 30.9379 84.2125 30.2072C85.5228 29.4765 86.9338 29.1111 88.4457 29.1111ZM121.323 29.4135L108.359 60.2551H102.727L107.263 49.8234L98.8718 29.4135H104.806L110.211 44.0406L115.691 29.4135H121.323ZM138.386 36.8215C139.873 37.0987 141.095 37.842 142.053 39.0515C143.01 40.261 143.489 41.6468 143.489 43.2091C143.489 44.6201 143.136 45.8674 142.431 46.9509C141.75 48.0092 140.755 48.8407 139.445 49.4454C138.135 50.0502 136.585 50.3525 134.796 50.3525H123.419V23.9708H134.305C136.094 23.9708 137.631 24.2606 138.916 24.8401C140.226 25.4197 141.209 26.226 141.864 27.2591C142.544 28.2922 142.884 29.4639 142.884 30.7741C142.884 32.3112 142.468 33.5962 141.637 34.6293C140.831 35.6624 139.747 36.3932 138.386 36.8215ZM128.711 34.8561H133.549C134.808 34.8561 135.779 34.5789 136.459 34.0246C137.139 33.4451 137.479 32.6261 137.479 31.5679C137.479 30.5096 137.139 29.6906 136.459 29.1111C135.779 28.5316 134.808 28.2418 133.549 28.2418H128.711V34.8561ZM134.04 46.0438C135.325 46.0438 136.32 45.7414 137.026 45.1367C137.757 44.5319 138.122 43.6752 138.122 42.5665C138.122 41.4326 137.744 40.5507 136.988 39.9208C136.232 39.2657 135.212 38.9381 133.927 38.9381H128.711V46.0438H134.04ZM145.59 39.8074C145.59 37.6908 146.005 35.8136 146.837 34.1758C147.694 32.538 148.84 31.2781 150.276 30.3962C151.738 29.5143 153.363 29.0733 155.152 29.0733C156.714 29.0733 158.075 29.3883 159.234 30.0182C160.418 30.6481 161.363 31.4419 162.069 32.3994V29.4135H167.398V50.3525H162.069V47.2911C161.388 48.2738 160.443 49.0927 159.234 49.7478C158.05 50.3777 156.676 50.6927 155.114 50.6927C153.35 50.6927 151.738 50.2392 150.276 49.332C148.84 48.4249 147.694 47.1525 146.837 45.5146C146.005 43.8516 145.59 41.9492 145.59 39.8074ZM162.069 39.883C162.069 38.5979 161.817 37.5018 161.313 36.5947C160.809 35.6624 160.129 34.9569 159.272 34.4782C158.415 33.9742 157.495 33.7222 156.513 33.7222C155.53 33.7222 154.623 33.9616 153.791 34.4404C152.96 34.9191 152.28 35.6246 151.75 36.5569C151.246 37.4641 150.994 38.5475 150.994 39.8074C150.994 41.0673 151.246 42.176 151.75 43.1335C152.28 44.0658 152.96 44.7839 153.791 45.2879C154.648 45.7918 155.555 46.0438 156.513 46.0438C157.495 46.0438 158.415 45.8044 159.272 45.3257C160.129 44.8217 160.809 44.1162 161.313 43.2091C161.817 42.2768 162.069 41.1681 162.069 39.883ZM183.414 29.1111C185.908 29.1111 187.924 29.9048 189.461 31.4923C190.998 33.0545 191.766 35.2467 191.766 38.0688V50.3525H186.475V38.7869C186.475 37.1239 186.059 35.8514 185.228 34.9695C184.396 34.0624 183.262 33.6088 181.826 33.6088C180.365 33.6088 179.206 34.0624 178.349 34.9695C177.517 35.8514 177.102 37.1239 177.102 38.7869V50.3525H171.81V29.4135H177.102V32.0214C177.807 31.1143 178.702 30.4088 179.785 29.9048C180.894 29.3757 182.103 29.1111 183.414 29.1111ZM208.44 50.3525L201.334 41.4326V50.3525H196.042V22.3834H201.334V38.2956L208.364 29.4135H215.243L206.021 39.9208L215.318 50.3525H208.44Z" fill="#003049"/>
</svg>
