<svg width="190" height="23" viewBox="0 0 190 23" fill="none" xmlns="http://www.w3.org/2000/svg">
<path d="M8.25755 9.62654C8.25755 10.5667 7.94939 11.324 7.33308 11.8985C6.71677 12.4731 5.7923 12.7603 4.55967 12.7603H2.35035V17.4297H1.25352V6.47707H4.55967C5.78185 6.47707 6.7011 6.76434 7.31741 7.33887C7.94417 7.9134 8.25755 8.67595 8.25755 9.62654ZM4.55967 11.8202C6.27281 11.8202 7.12938 11.089 7.12938 9.62654C7.12938 8.89532 6.92569 8.34168 6.51829 7.96563C6.1109 7.58957 5.45803 7.40154 4.55967 7.40154H2.35035V11.8202H4.55967ZM13.8428 17.555C13.0385 17.555 12.3125 17.3775 11.6648 17.0223C11.0276 16.6567 10.521 16.1448 10.1449 15.4867C9.77932 14.8182 9.59651 14.04 9.59651 13.1521C9.59651 12.2641 9.78454 11.4911 10.1606 10.833C10.5367 10.1645 11.0485 9.65265 11.6962 9.29749C12.3438 8.93188 13.0698 8.74907 13.8741 8.74907C14.6785 8.74907 15.4045 8.93188 16.0521 9.29749C16.7102 9.65265 17.2221 10.1645 17.5877 10.833C17.9637 11.4911 18.1518 12.2641 18.1518 13.1521C18.1518 14.0295 17.9637 14.8025 17.5877 15.4711C17.2116 16.1396 16.6946 16.6567 16.0365 17.0223C15.3784 17.3775 14.6471 17.555 13.8428 17.555ZM13.8428 16.5992C14.4069 16.5992 14.9292 16.4739 15.4097 16.2232C15.8902 15.962 16.2767 15.5755 16.5692 15.0637C16.8721 14.5414 17.0236 13.9042 17.0236 13.1521C17.0236 12.3999 16.8774 11.768 16.5849 11.2561C16.2924 10.7338 15.9059 10.3473 15.4254 10.0966C14.9449 9.83546 14.4226 9.70488 13.8585 9.70488C13.2944 9.70488 12.7721 9.83546 12.2916 10.0966C11.8111 10.3473 11.4246 10.7338 11.1321 11.2561C10.85 11.768 10.709 12.3999 10.709 13.1521C10.709 13.9042 10.85 14.5414 11.1321 15.0637C11.4246 15.5755 11.8058 15.962 12.2759 16.2232C12.7564 16.4739 13.2787 16.5992 13.8428 16.5992ZM31.4328 8.87443L28.7534 17.4297H27.6566L25.2906 10.2533L22.9246 17.4297H21.8121L19.1327 8.87443H20.2452L22.3762 16.3172L24.7735 8.87443H25.8703L28.2364 16.3329L30.3517 8.87443H31.4328ZM40.6686 12.7133C40.6686 13.0894 40.6581 13.3766 40.6372 13.5751H33.5392C33.5705 14.2228 33.7272 14.7764 34.0093 15.236C34.2913 15.6957 34.6621 16.0456 35.1218 16.2859C35.5814 16.5157 36.0828 16.6306 36.626 16.6306C37.3363 16.6306 37.9317 16.4582 38.4123 16.1135C38.9032 15.7688 39.227 15.3039 39.3837 14.719H40.5432C40.3343 15.5546 39.8851 16.2388 39.1957 16.7716C38.5167 17.2939 37.6601 17.555 36.626 17.555C35.8216 17.555 35.1009 17.3775 34.4637 17.0223C33.8265 16.6567 33.3251 16.1448 32.9594 15.4867C32.6043 14.8182 32.4267 14.04 32.4267 13.1521C32.4267 12.2641 32.6043 11.4859 32.9594 10.8174C33.3146 10.1488 33.8108 9.63698 34.448 9.28182C35.0852 8.92666 35.8112 8.74907 36.626 8.74907C37.4408 8.74907 38.1511 8.92666 38.757 9.28182C39.3733 9.63698 39.8434 10.1175 40.1672 10.7234C40.5014 11.3188 40.6686 11.9821 40.6686 12.7133ZM39.5561 12.682C39.5665 12.0448 39.436 11.5016 39.1644 11.0524C38.9032 10.6032 38.5428 10.2637 38.0832 10.0339C37.6236 9.80412 37.1222 9.68921 36.579 9.68921C35.7642 9.68921 35.0695 9.95036 34.495 10.4727C33.9205 10.995 33.6019 11.7314 33.5392 12.682H39.5561ZM43.7721 10.3943C44.0124 9.86157 44.378 9.44896 44.869 9.15647C45.3704 8.86398 45.9815 8.71774 46.7022 8.71774V9.86157H46.4045C45.6106 9.86157 44.9734 10.0757 44.4929 10.504C44.0124 10.9323 43.7721 11.6478 43.7721 12.6506V17.4297H42.6753V8.87443H43.7721V10.3943ZM56.0927 12.7133C56.0927 13.0894 56.0823 13.3766 56.0614 13.5751H48.9633C48.9947 14.2228 49.1514 14.7764 49.4334 15.236C49.7155 15.6957 50.0863 16.0456 50.5459 16.2859C51.0055 16.5157 51.5069 16.6306 52.0501 16.6306C52.7605 16.6306 53.3559 16.4582 53.8364 16.1135C54.3274 15.7688 54.6512 15.3039 54.8079 14.719H55.9674C55.7585 15.5546 55.3093 16.2388 54.6198 16.7716C53.9409 17.2939 53.0843 17.555 52.0501 17.555C51.2458 17.555 50.525 17.3775 49.8878 17.0223C49.2506 16.6567 48.7492 16.1448 48.3836 15.4867C48.0284 14.8182 47.8509 14.04 47.8509 13.1521C47.8509 12.2641 48.0284 11.4859 48.3836 10.8174C48.7388 10.1488 49.2349 9.63698 49.8721 9.28182C50.5094 8.92666 51.2353 8.74907 52.0501 8.74907C52.8649 8.74907 53.5752 8.92666 54.1811 9.28182C54.7974 9.63698 55.2675 10.1175 55.5913 10.7234C55.9256 11.3188 56.0927 11.9821 56.0927 12.7133ZM54.9802 12.682C54.9907 12.0448 54.8601 11.5016 54.5885 11.0524C54.3274 10.6032 53.967 10.2637 53.5074 10.0339C53.0477 9.80412 52.5463 9.68921 52.0031 9.68921C51.1883 9.68921 50.4937 9.95036 49.9192 10.4727C49.3446 10.995 49.026 11.7314 48.9633 12.682H54.9802ZM57.5981 13.1364C57.5981 12.2589 57.7756 11.4911 58.1308 10.833C58.486 10.1645 58.9717 9.65265 59.588 9.29749C60.2148 8.93188 60.9199 8.74907 61.7033 8.74907C62.4554 8.74907 63.1344 8.93188 63.7403 9.29749C64.3462 9.6631 64.7901 10.1384 65.0722 10.7234V5.83465H66.169V17.4297H65.0722V15.5181C64.811 16.1135 64.3827 16.6045 63.7873 16.991C63.1919 17.367 62.492 17.555 61.6877 17.555C60.9042 17.555 60.1991 17.3722 59.5723 17.0066C58.956 16.641 58.4703 16.1239 58.1151 15.4554C57.7704 14.7869 57.5981 14.0139 57.5981 13.1364ZM65.0722 13.1521C65.0722 12.4626 64.9311 11.8568 64.6491 11.3345C64.3671 10.8122 63.9806 10.41 63.4896 10.1279C63.0091 9.8459 62.4763 9.70488 61.8914 9.70488C61.2855 9.70488 60.7423 9.84068 60.2618 10.1123C59.7813 10.3839 59.4 10.7808 59.1179 11.3031C58.8463 11.815 58.7106 12.4261 58.7106 13.1364C58.7106 13.8363 58.8463 14.4526 59.1179 14.9853C59.4 15.5076 59.7813 15.9098 60.2618 16.1918C60.7423 16.4634 61.2855 16.5992 61.8914 16.5992C62.4763 16.5992 63.0091 16.4582 63.4896 16.1762C63.9806 15.8941 64.3671 15.492 64.6491 14.9697C64.9311 14.4474 65.0722 13.8415 65.0722 13.1521ZM74.0539 10.7704C74.3359 10.175 74.7695 9.68921 75.3544 9.31316C75.9499 8.9371 76.6497 8.74907 77.4541 8.74907C78.2375 8.74907 78.9374 8.93188 79.5537 9.29749C80.17 9.65265 80.6505 10.1645 80.9953 10.833C81.3504 11.4911 81.528 12.2589 81.528 13.1364C81.528 14.0139 81.3504 14.7869 80.9953 15.4554C80.6505 16.1239 80.1648 16.641 79.538 17.0066C78.9217 17.3722 78.2271 17.555 77.4541 17.555C76.6393 17.555 75.9342 17.3722 75.3388 17.0066C74.7538 16.6306 74.3255 16.1448 74.0539 15.5494V17.4297H72.9727V5.83465H74.0539V10.7704ZM80.4155 13.1364C80.4155 12.4261 80.2745 11.815 79.9924 11.3031C79.7209 10.7808 79.3448 10.3839 78.8643 10.1123C78.3838 9.84068 77.8406 9.70488 77.2347 9.70488C76.6497 9.70488 76.1118 9.8459 75.6208 10.1279C75.1403 10.41 74.759 10.8122 74.477 11.3345C74.1949 11.8568 74.0539 12.4626 74.0539 13.1521C74.0539 13.8415 74.1949 14.4474 74.477 14.9697C74.759 15.492 75.1403 15.8941 75.6208 16.1762C76.1118 16.4582 76.6497 16.5992 77.2347 16.5992C77.8406 16.5992 78.3838 16.4634 78.8643 16.1918C79.3448 15.9098 79.7209 15.5076 79.9924 14.9853C80.2745 14.4526 80.4155 13.8363 80.4155 13.1364ZM90.5973 8.87443L85.5205 21.4566H84.3767L86.0376 17.3827L82.5278 8.87443H83.7343L86.6487 16.1762L89.4691 8.87443H90.5973Z" fill="#003049"/>
<g clip-path="url(#clip0_1_226)">
<path d="M131.016 17.3491V6.27246H133.421V17.3491H131.016ZM189.058 15.2921H189.598V17.3491H188.473C187.85 17.3491 187.31 17.2277 186.851 16.9852C186.392 16.7425 186.041 16.392 185.798 15.9329C185.556 15.4741 185.434 14.9282 185.434 14.2951V10.6557H183.884V10.1652L187.27 6.57312H187.697V8.80423H189.598V10.6557H187.745V13.9946C187.745 14.4059 187.858 14.7251 188.085 14.9518C188.312 15.1788 188.636 15.2921 189.058 15.2921ZM179.781 17.5864C177.905 17.5864 176.189 16.5807 176.189 14.5324H178.436C178.471 15.3724 179.099 15.6717 179.86 15.6717C180.082 15.6717 180.282 15.6403 180.461 15.5767C180.799 15.458 181.079 15.1954 181.079 14.8173C181.079 14.1298 179.946 13.9884 179.433 13.8996C177.877 13.6633 176.331 13.1799 176.331 11.2887C176.331 9.39151 178.096 8.56693 179.773 8.56693C181.54 8.56693 183.199 9.46495 183.199 11.4152H180.999C180.999 10.7399 180.572 10.4025 179.718 10.4025C179.188 10.4025 178.578 10.5951 178.578 11.2253C178.578 11.616 178.92 11.7912 179.243 11.8822C179.826 12.0456 180.45 12.1279 181.047 12.2539C182.427 12.544 183.357 13.2402 183.357 14.7066C183.357 16.7319 181.585 17.5864 179.781 17.5864H179.781ZM175.561 13.0451C175.561 13.2666 175.545 13.4933 175.513 13.7253H169.057C169.243 14.8654 169.981 15.5293 171.146 15.5293C171.885 15.5293 172.57 15.1963 172.95 14.5484H175.386C174.748 16.4216 173.126 17.5865 171.146 17.5865C168.575 17.5865 166.715 15.6228 166.715 13.0767C166.715 10.5523 168.551 8.56693 171.146 8.56693C173.725 8.56693 175.561 10.4885 175.561 13.0451H175.561ZM171.146 10.5291C170.1 10.5291 169.372 11.1378 169.12 12.1432H173.25C172.949 11.1509 172.198 10.5291 171.146 10.5291H171.146ZM165.308 6.27246H167.918L163.741 17.3491H161.478L157.142 6.27246H159.785L162.586 14.1052L165.308 6.27246H165.308ZM154.951 8.59855C157.071 8.59855 158.1 10.1976 158.1 12.1748V17.3491H155.79V12.5387C155.79 11.2621 155.294 10.6242 154.303 10.6242C152.979 10.6242 152.388 11.6386 152.388 12.8552V17.3492H150.078V8.80425H151.66L152.119 9.86467C152.785 9.01912 153.894 8.5986 154.951 8.5986L154.951 8.59855ZM144.677 17.5864C142.058 17.5864 140.057 15.7289 140.057 13.0767C140.057 10.4171 142.052 8.56691 144.677 8.56691C147.295 8.56691 149.282 10.4296 149.282 13.0767C149.282 15.7025 147.274 17.5864 144.677 17.5864ZM144.677 15.4187C146.047 15.4187 146.94 14.4212 146.94 13.0767C146.94 11.7258 146.043 10.7348 144.669 10.7348C143.296 10.7348 142.399 11.7259 142.399 13.0767C142.399 14.4333 143.3 15.4187 144.677 15.4187ZM138.994 8.75668H139.753V10.9406H138.756C138.102 10.9406 137.635 11.0934 137.356 11.3992C137.076 11.7052 136.936 12.2064 136.936 12.9028V17.3491H134.626V8.80423H136.114L136.525 9.84864C137.105 9.12073 137.928 8.7567 138.994 8.7567L138.994 8.75668Z" fill="#003049"/>
<path fill-rule="evenodd" clip-rule="evenodd" d="M119.148 1.02415L100.878 10.6742C100.014 11.1308 99.9993 12.0852 100.279 12.6147L105.361 22.2357C105.73 22.9342 106.603 23.2037 107.301 22.8349L125.571 13.1848C126.437 12.7277 126.45 11.7729 126.171 11.2444L121.089 1.62333C120.72 0.924981 119.847 0.655281 119.148 1.02415Z" fill="#00D2B2"/>
<path fill-rule="evenodd" clip-rule="evenodd" d="M107.301 1.02415L125.571 10.6742C126.436 11.1308 126.45 12.0852 126.171 12.6147L121.089 22.2357C120.72 22.9342 119.847 23.2037 119.148 22.8349L100.878 13.1848C100.013 12.7277 99.9998 11.7729 100.279 11.2444L105.361 1.62333C105.73 0.924981 106.603 0.655281 107.301 1.02415Z" fill="#003049" fill-opacity="0.74902"/>
<path fill-rule="evenodd" clip-rule="evenodd" d="M100.123 12.0641C100.124 12.0792 100.126 12.0941 100.128 12.109C100.126 12.094 100.124 12.079 100.123 12.0641ZM113.225 4.15283L100.878 10.6743C100.267 10.9973 100.081 11.5695 100.123 12.0641C100.124 12.0709 100.124 12.0778 100.125 12.0847C100.126 12.0928 100.127 12.1009 100.128 12.109C100.175 12.5155 100.393 12.9285 100.878 13.1848L113.225 19.7061L125.571 13.1848C126.104 12.9034 126.314 12.4334 126.331 11.9902C126.332 11.9737 126.332 11.9571 126.332 11.9407C126.333 11.9146 126.332 11.8885 126.331 11.8627C126.329 11.8253 126.326 11.7878 126.322 11.7502C126.274 11.3435 126.057 10.9304 125.571 10.6742L113.225 4.15285V4.15283Z" fill="#003049"/>
</g>
<defs>
<clipPath id="clip0_1_226">
<rect width="89.4806" height="22.1413" fill="white" transform="translate(100.117 0.858887)"/>
</clipPath>
</defs>
</svg>
